<svg width="80" height="80" viewBox="0 0 80 80" fill="none" xmlns="http://www.w3.org/2000/svg">
<g clip-path="url(#clip0)">
<path d="M48.688 30.4829H26.9333V24.6458H48.688C49.5508 24.6458 50.2505 23.9461 50.2505 23.0833C50.2505 22.2204 49.5508 21.5208 48.688 21.5208H26.9333V21.3383C26.9333 20.4754 26.2336 19.7758 25.3708 19.7758H3.24281C1.45484 19.7756 0 21.2304 0 23.0186V32.11C0 33.8979 1.45484 35.3528 3.24281 35.3528H25.3708C26.2336 35.3528 26.9333 34.6533 26.9333 33.7903V33.6079H48.688C49.5508 33.6079 50.2505 32.9083 50.2505 32.0454C50.2505 31.1825 49.5508 30.4829 48.688 30.4829ZM23.8083 32.2278H3.24281C3.17781 32.2278 3.125 32.175 3.125 32.11V23.0186C3.125 22.9536 3.17781 22.9006 3.24281 22.9006H23.8083V32.2278Z" fill="#1939DE"/>
<path d="M41.6853 14.6278H62.5351V40.5008H41.6853V14.6278Z" fill="#CFD7FF"/>
<path d="M39.9402 16.1906H64.2799C65.1427 16.1906 65.8424 15.4909 65.8424 14.6281V6.88342C65.8424 6.02061 65.1427 5.32092 64.2799 5.32092H39.9402C39.0774 5.32092 38.3777 6.02061 38.3777 6.88342V14.6281C38.3777 15.4911 39.0774 16.1906 39.9402 16.1906ZM41.5027 8.44592H62.7174V13.0656H41.5027V8.44592Z" fill="#1939DE"/>
<path d="M39.9402 49.8083H64.2799C65.1427 49.8083 65.8424 49.1086 65.8424 48.2458V40.5012C65.8424 39.6383 65.1427 38.9387 64.2799 38.9387H39.9402C39.0774 38.9387 38.3777 39.6384 38.3777 40.5012V48.2458C38.3777 49.1086 39.0774 49.8083 39.9402 49.8083ZM41.5027 42.0636H62.7174V46.6831H41.5027V42.0636Z" fill="#1939DE"/>
<path d="M78.4374 71.5546H73.5862V67.3143C73.5862 65.3743 72.244 63.742 70.4395 63.297V59.5932C70.4395 56.9499 68.2888 54.7993 65.6456 54.7993H38.4017C35.7582 54.7993 33.6076 56.9499 33.6076 59.5932V63.297C31.8032 63.742 30.461 65.3743 30.461 67.3143V71.5548H25.6096C24.7468 71.5548 24.0471 72.2545 24.0471 73.1173C24.0471 73.9801 24.7468 74.6798 25.6096 74.6798H78.4374C79.3002 74.6798 79.9999 73.9801 79.9999 73.1173C79.9999 72.2543 79.3002 71.5546 78.4374 71.5546ZM36.7327 59.5932C36.7327 58.6729 37.4815 57.9243 38.4018 57.9243H65.6457C66.566 57.9243 67.3146 58.6729 67.3146 59.5932V63.1771H36.7327V59.5932ZM33.5862 71.5546V67.3143C33.5862 66.7562 34.0402 66.302 34.5985 66.302H69.4488C70.0071 66.302 70.4612 66.756 70.4612 67.3143V71.5548H33.5862V71.5546Z" fill="#00B956"/>
</g>
<defs>
<clipPath id="clip0">
<rect width="80" height="80" fill="white"/>
</clipPath>
</defs>
</svg>
