<svg width="17" height="18" viewBox="0 0 17 18" fill="none" xmlns="http://www.w3.org/2000/svg">
<g clip-path="url(#clip0)">
<path d="M15.4807 1.44744C13.6268 -0.482849 10.6632 -0.482429 8.80989 1.44839L1.03682 9.72045C-0.368706 11.2515 -0.341845 13.7051 1.09682 15.2008C2.51181 16.672 4.77166 16.672 6.18665 15.2008L13.2253 7.7104C14.1403 6.73663 14.1403 5.1578 13.2253 4.18403C12.3103 3.21026 10.8267 3.21026 9.91163 4.18403L3.179 11.3488C2.94417 11.6075 2.95092 12.0199 3.19406 12.2698C3.43126 12.5136 3.80728 12.5136 4.04447 12.2698L10.7771 5.10502C11.2235 4.64987 11.9322 4.66609 12.3598 5.1412C12.7746 5.60196 12.7746 6.32865 12.3598 6.78941L5.32122 14.2798C4.37036 15.2773 2.83963 15.2657 1.90229 14.2538C0.97442 13.2521 0.97442 11.6431 1.90229 10.6414L9.67537 2.36938C11.0599 0.895389 13.3052 0.894969 14.6902 2.36839C16.0753 3.84181 16.0757 6.23118 14.6912 7.70517L6.91807 15.9772C6.66133 16.2112 6.63142 16.6224 6.85129 16.8956C7.07117 17.1688 7.45755 17.2007 7.71429 16.9667C7.73825 16.9449 7.76055 16.9211 7.78107 16.8956L15.5542 8.62356C17.396 6.62034 17.3631 3.40746 15.4807 1.44744Z" fill="#9299A2"/>
</g>
<defs>
<clipPath id="clip0">
<rect width="16.9143" height="17.1233" fill="white"/>
</clipPath>
</defs>
</svg>
