<svg width="80" height="80" viewBox="0 0 80 80" fill="none" xmlns="http://www.w3.org/2000/svg">
<path d="M22.4789 37.3778V71.5625H14.9365V37.3778H22.4789Z" fill="#CFD7FF"/>
<path d="M43.7711 37.3778V71.5625H36.2288V37.3778H43.7711Z" fill="#CFD7FF"/>
<path d="M65.0635 37.3781V71.5627H57.5211V37.3781H65.0635Z" fill="#CFD7FF"/>
<path d="M18.7076 18.1769C15.5584 18.1769 12.9962 20.7391 12.9962 23.8883C12.9962 27.0375 15.5582 29.5997 18.7076 29.5997C21.857 29.5997 24.4192 27.0375 24.4192 23.8883C24.4192 20.7391 21.8572 18.1769 18.7076 18.1769ZM18.7076 26.4747C17.2815 26.4747 16.1212 25.3144 16.1212 23.8883C16.1212 22.462 17.2815 21.3019 18.7076 21.3019C20.1339 21.3019 21.2942 22.4622 21.2942 23.8883C21.2942 25.3144 20.1339 26.4747 18.7076 26.4747Z" fill="#00B956"/>
<path d="M14.9366 11.9528H22.479C23.3418 11.9528 24.0415 11.2532 24.0415 10.3903C24.0415 9.52729 23.3418 8.82776 22.479 8.82776H14.9366C14.0738 8.82776 13.3741 9.52729 13.3741 10.3903C13.3741 11.2532 14.0737 11.9528 14.9366 11.9528Z" fill="#00B956"/>
<path d="M40 18.1769C36.8508 18.1769 34.2886 20.7391 34.2886 23.8883C34.2886 27.0375 36.8506 29.5997 40 29.5997C43.1494 29.5997 45.7114 27.0375 45.7114 23.8883C45.7114 20.7391 43.1492 18.1769 40 18.1769ZM40 26.4747C38.5739 26.4747 37.4136 25.3144 37.4136 23.8883C37.4136 22.462 38.5739 21.3019 40 21.3019C41.4261 21.3019 42.5864 22.4622 42.5864 23.8883C42.5864 25.3144 41.4261 26.4747 40 26.4747Z" fill="#00B956"/>
<path d="M36.2289 11.9528H43.7712C44.634 11.9528 45.3337 11.2532 45.3337 10.3903C45.3337 9.52729 44.634 8.82776 43.7712 8.82776H36.2289C35.3661 8.82776 34.6664 9.52729 34.6664 10.3903C34.6664 11.2532 35.3661 11.9528 36.2289 11.9528Z" fill="#00B956"/>
<path d="M69.1879 0H53.3965C52.352 0 51.3931 0.373281 50.6461 0.993281C49.899 0.373281 48.9401 0 47.8956 0H32.1043C31.06 0 30.1011 0.373281 29.3539 0.993281C28.6068 0.373281 27.6479 0 26.6034 0H10.812C8.43387 0 6.49902 1.93484 6.49902 4.31313V75.687C6.49902 78.0653 8.43387 80 10.812 80H26.6032C27.6478 80 28.6067 79.6267 29.3539 79.0067C30.1009 79.6267 31.0598 80 32.1043 80H47.8956C48.94 80 49.8989 79.6267 50.6461 79.0067C51.3931 79.6267 52.3521 80 53.3965 80H69.1878C71.5659 80 73.5007 78.0652 73.5007 75.687V4.31313C73.5007 1.93484 71.5659 0 69.1879 0V0ZM26.6034 76.875H10.812C10.157 76.875 9.62402 76.342 9.62402 75.687V4.31313C9.62402 3.65812 10.1568 3.125 10.812 3.125H26.6032C27.2582 3.125 27.7914 3.65797 27.7914 4.31313V75.687C27.7914 76.342 27.2584 76.875 26.6034 76.875ZM47.8956 76.875H32.1043C31.4493 76.875 30.9164 76.342 30.9164 75.687V4.31313C30.9164 3.65812 31.4492 3.125 32.1043 3.125H47.8956C48.5506 3.125 49.0836 3.65797 49.0836 4.31313V75.687C49.0836 76.342 48.5507 76.875 47.8956 76.875ZM70.3757 75.687C70.3757 76.342 69.8429 76.875 69.1878 76.875H53.3965C52.7415 76.875 52.2084 76.342 52.2084 75.687V4.31313C52.2084 3.65812 52.7414 3.125 53.3965 3.125H69.1878C69.8428 3.125 70.3757 3.65797 70.3757 4.31313V75.687Z" fill="#1939DE"/>
<path d="M61.2922 18.1769C58.1429 18.1769 55.5807 20.7391 55.5807 23.8883C55.5807 27.0375 58.1427 29.5997 61.2922 29.5997C64.4415 29.5997 67.0037 27.0375 67.0037 23.8883C67.0035 20.7391 64.4415 18.1769 61.2922 18.1769ZM61.2922 26.4747C59.866 26.4747 58.7057 25.3144 58.7057 23.8883C58.7057 22.462 59.866 21.3019 61.2922 21.3019C62.7183 21.3019 63.8787 22.4622 63.8787 23.8883C63.8785 25.3144 62.7182 26.4747 61.2922 26.4747Z" fill="#00B956"/>
<path d="M57.5211 11.9528H65.0635C65.9263 11.9528 66.626 11.2532 66.626 10.3903C66.626 9.52729 65.9263 8.82776 65.0635 8.82776H57.5211C56.6583 8.82776 55.9586 9.52729 55.9586 10.3903C55.9586 11.2532 56.6581 11.9528 57.5211 11.9528Z" fill="#00B956"/>
</svg>
