<svg width="80" height="80" viewBox="0 0 80 80" fill="none" xmlns="http://www.w3.org/2000/svg">
<g clip-path="url(#clip0)">
<path d="M55.8947 56.2821C53.1425 58.0404 50.0811 59.3555 46.8105 60.1271L40 70.7262L33.1895 60.1271C29.9189 59.3555 26.8575 58.0404 24.1053 56.2821H16.4626L4.10718 80.0001H63.5373L75.8928 56.2821H55.8947Z" fill="#CFD7FF"/>
<path d="M40 0C22.8115 0 8.82739 14.0137 8.82739 31.2392C8.82739 38.3198 11.2569 45.2555 15.6683 50.7683C19.8793 56.0308 25.7343 59.822 32.2111 61.4945L37.139 69.1636H34.4044C33.5415 69.1636 32.8419 69.8633 32.8419 70.7261C32.8419 71.5889 33.5415 72.2886 34.4044 72.2886H45.596C46.459 72.2886 47.1585 71.5889 47.1585 70.7261C47.1585 69.8633 46.459 69.1636 45.596 69.1636H42.8615L47.7893 61.4945C54.266 59.822 60.121 56.0306 64.3321 50.7683C68.7435 45.2555 71.173 38.3198 71.173 31.2392C71.1727 14.0137 57.1886 0 40 0V0ZM46.4518 58.6062C46.0577 58.6992 45.715 58.9416 45.496 59.2822L40 67.8356L34.5041 59.2822C34.2852 58.9416 33.9425 58.6991 33.5483 58.6062C20.833 55.6066 11.9524 44.3527 11.9524 31.2392C11.9524 15.737 24.5346 3.125 40 3.125C55.4655 3.125 68.0477 15.737 68.0477 31.2392C68.0477 44.3527 59.1671 55.6066 46.4518 58.6062Z" fill="#1939DE"/>
<path d="M40.0001 9.38928C27.977 9.38928 18.1956 19.1912 18.1956 31.2393C18.1956 43.2874 27.977 53.0893 40.0001 53.0893C52.0232 53.0893 61.8046 43.2876 61.8046 31.2393C61.8046 19.191 52.0232 9.38928 40.0001 9.38928ZM40.0001 49.9643C29.7001 49.9643 21.3206 41.5643 21.3206 31.2393C21.3206 20.9143 29.7001 12.5143 40.0001 12.5143C50.3001 12.5143 58.6796 20.9143 58.6796 31.2393C58.6796 41.5643 50.3001 49.9643 40.0001 49.9643Z" fill="#00B956"/>
</g>
<defs>
<clipPath id="clip0">
<rect width="80" height="80" fill="white"/>
</clipPath>
</defs>
</svg>
