<svg width="155" height="48" viewBox="0 0 155 48" fill="none" xmlns="http://www.w3.org/2000/svg">
<path d="M127.25 23.5703L129.531 17.625H131.727L127.766 27.0625L127.406 27.7734C126.885 28.7005 126.042 29.1641 124.875 29.1641L124.062 29.1172L124.078 27.5547C124.203 27.5755 124.424 27.5859 124.742 27.5859C125.305 27.5859 125.701 27.3464 125.93 26.8672L126.336 25.9062L122.445 17.625H124.602L127.25 23.5703ZM143.055 31.7969H141.18V29H133.688V31.7969H131.781L131.719 27.4219H132.633C133.086 26.9844 133.448 26.349 133.719 25.5156C133.99 24.6771 134.164 23.7292 134.242 22.6719L134.539 17.625H141.711V27.4219H143.156L143.055 31.7969ZM134.867 27.4219H139.742V19.2188H136.422L136.234 22.4219C136.094 24.5625 135.638 26.2292 134.867 27.4219ZM153.531 23.6094C153.531 24.724 153.339 25.7031 152.953 26.5469C152.568 27.3854 152.016 28.0312 151.297 28.4844C150.583 28.9323 149.76 29.1562 148.828 29.1562C147.906 29.1562 147.083 28.9323 146.359 28.4844C145.641 28.0312 145.083 27.388 144.688 26.5547C144.297 25.7214 144.099 24.7604 144.094 23.6719V23.0312C144.094 21.9219 144.289 20.9427 144.68 20.0938C145.076 19.2448 145.63 18.5964 146.344 18.1484C147.062 17.6953 147.885 17.4688 148.812 17.4688C149.74 17.4688 150.56 17.6927 151.273 18.1406C151.992 18.5833 152.547 19.224 152.938 20.0625C153.328 20.8958 153.526 21.8672 153.531 22.9766V23.6094ZM151.555 23.0156C151.555 21.7552 151.315 20.7891 150.836 20.1172C150.362 19.4453 149.688 19.1094 148.812 19.1094C147.958 19.1094 147.289 19.4453 146.805 20.1172C146.326 20.7839 146.081 21.7292 146.07 22.9531V23.6094C146.07 24.8594 146.312 25.8255 146.797 26.5078C147.286 27.1901 147.964 27.5312 148.828 27.5312C149.703 27.5312 150.375 27.1979 150.844 26.5312C151.318 25.8646 151.555 24.8906 151.555 23.6094V23.0156Z" fill="#1939DE"/>
<path d="M75.3594 18.7031H75.5312C76.4062 18.7031 77.2005 18.901 77.9141 19.2969C78.6328 19.6875 79.1901 20.2396 79.5859 20.9531C79.987 21.6667 80.1875 22.4688 80.1875 23.3594C80.1875 24.2448 79.987 25.0417 79.5859 25.75C79.1901 26.4531 78.638 27 77.9297 27.3906C77.2266 27.7812 76.4375 27.9792 75.5625 27.9844H75.3594V29.4688H73.4609V27.9844H73.2734C72.3932 27.9844 71.5938 27.7891 70.875 27.3984C70.1562 27.0026 69.599 26.4531 69.2031 25.75C68.8125 25.0469 68.6172 24.2552 68.6172 23.375C68.6172 22.4844 68.8151 21.6823 69.2109 20.9688C69.6068 20.2552 70.1615 19.7005 70.875 19.3047C71.5885 18.9036 72.388 18.7031 73.2734 18.7031H73.4609V17.1562H75.3594V18.7031ZM73.2734 20.2891C72.3984 20.2891 71.7135 20.5625 71.2188 21.1094C70.7292 21.6562 70.4844 22.4115 70.4844 23.375C70.4844 24.3125 70.7292 25.0521 71.2188 25.5938C71.7083 26.1302 72.401 26.3984 73.2969 26.3984H73.4609V20.2891H73.2734ZM75.3594 20.2891V26.3984H75.5469C76.4219 26.3984 77.1016 26.125 77.5859 25.5781C78.0755 25.0312 78.3203 24.2917 78.3203 23.3594C78.3203 22.4062 78.0755 21.6562 77.5859 21.1094C77.1016 20.5625 76.4141 20.2891 75.5234 20.2891H75.3594ZM90.5859 25.2969C90.4714 26.5104 90.0234 27.4583 89.2422 28.1406C88.4609 28.8177 87.4219 29.1562 86.125 29.1562C85.2188 29.1562 84.4193 28.9427 83.7266 28.5156C83.0391 28.0833 82.5078 27.4714 82.1328 26.6797C81.7578 25.888 81.5625 24.9688 81.5469 23.9219V22.8594C81.5469 21.7865 81.737 20.8411 82.1172 20.0234C82.4974 19.2057 83.0417 18.5755 83.75 18.1328C84.4635 17.6901 85.2865 17.4688 86.2188 17.4688C87.474 17.4688 88.4844 17.8099 89.25 18.4922C90.0156 19.1745 90.4609 20.138 90.5859 21.3828H88.6172C88.5234 20.5651 88.2839 19.9766 87.8984 19.6172C87.5182 19.2526 86.9583 19.0703 86.2188 19.0703C85.3594 19.0703 84.6979 19.3854 84.2344 20.0156C83.776 20.6406 83.5417 21.5599 83.5312 22.7734V23.7812C83.5312 25.0104 83.75 25.9479 84.1875 26.5938C84.6302 27.2396 85.276 27.5625 86.125 27.5625C86.901 27.5625 87.4844 27.388 87.875 27.0391C88.2656 26.6901 88.513 26.1094 88.6172 25.2969H90.5859ZM99.3281 17.625H101.305V29H99.3281V20.8984L94.3359 29H92.3594V17.625H94.3359V25.7344L99.3281 17.625ZM112.703 29H110.734V23.9453H105.648V29H103.672V17.625H105.648V22.3594H110.734V17.625H112.703V29Z" fill="#3D4B66"/>
<path d="M24 0L25.07 1.305L24 2.68L22.928 1.306L24 0ZM29.884 14.419C30.451 14.244 31.44 14.229 32.128 14.833C32.128 14.188 31.571 13.616 31.377 13.543C31.122 13.589 30.256 13.963 29.884 14.419ZM15.9 14.833C16.59 14.23 17.578 14.243 18.145 14.419C17.775 13.962 16.907 13.589 16.653 13.543C16.459 13.616 15.901 14.188 15.901 14.833H15.9ZM31.187 5.252L30.425 4.325L29.664 5.252L30.424 6.159L31.187 5.252ZM17.574 4.325L18.336 5.252L17.574 6.159L16.813 5.252L17.574 4.325Z" fill="#3D4B66"/>
<path d="M16.154 9.80005H18.995C21.385 9.80005 22.459 8.33405 22.785 7.06305H25.215C25.54 8.33305 26.615 9.79905 29.005 9.79905H31.846C31.846 9.79905 32.343 9.12505 32.468 8.79205C32.917 7.59105 32.343 7.03105 31.506 7.03105L30.425 8.01105L29.343 7.03105C28.506 7.03105 27.933 7.59105 28.382 8.79105C28.439 8.94505 28.576 9.17105 28.706 9.36905C27.698 9.23105 26.411 8.54105 26.128 7.06305C26.128 7.06305 26.873 5.88005 27.06 5.40205C27.732 3.68005 26.874 2.97705 25.62 2.97705L24 4.88005L22.38 2.97705C21.125 2.97705 20.267 3.68005 20.94 5.40205C21.126 5.88005 21.871 7.06305 21.871 7.06305C21.588 8.54105 20.301 9.23105 19.293 9.36905C19.423 9.17105 19.56 8.94505 19.617 8.79205C20.065 7.59105 19.493 7.03105 18.656 7.03105L17.574 8.01105L16.492 7.03105C15.655 7.03105 15.083 7.59105 15.531 8.79105C15.656 9.12505 16.154 9.79905 16.154 9.79905V9.80005ZM35.288 6.78705C35.217 6.55905 37.54 6.55305 37.54 8.00605C37.54 8.48805 37.2 8.84505 36.855 9.20505C36.505 9.57205 36.151 9.94205 36.151 10.4521C36.151 10.922 36.657 11.2681 36.813 11.2681C36.455 9.64505 37.935 10.4941 38.334 10.7981C37.846 9.45605 38.334 8.94505 38.741 8.51805C38.996 8.24905 39.22 8.01405 39.152 7.62805C39.077 7.20105 38.466 7.11405 37.874 7.03005C37.499 6.97705 37.132 6.92405 36.914 6.78705C36.647 6.62005 36.368 6.32305 36.087 6.02505C35.314 5.20405 34.527 4.36805 33.957 6.15905C35.407 7.50505 34.563 9.48605 32.722 9.48605C32.722 9.48605 32.712 9.77605 32.728 9.79905C34.925 9.69205 35.69 8.07905 35.288 6.78705ZM11.187 11.2681C11.544 9.64505 10.064 10.4941 9.66404 10.7981C10.153 9.45605 9.66504 8.94505 9.25804 8.51805C9.00304 8.24905 8.77904 8.01405 8.84704 7.62805C8.92204 7.20105 9.53304 7.11405 10.125 7.03005C10.5 6.97705 10.867 6.92405 11.085 6.78705C11.352 6.62005 11.631 6.32305 11.912 6.02505C12.685 5.20405 13.472 4.36805 14.042 6.15905C12.592 7.50505 13.437 9.48605 15.277 9.48605C15.277 9.48605 15.287 9.77605 15.271 9.79905C13.075 9.69205 12.31 8.07905 12.711 6.78705C12.781 6.55905 10.459 6.55305 10.459 8.00605C10.459 8.48805 10.799 8.84505 11.144 9.20505C11.494 9.57205 11.848 9.94205 11.848 10.4521C11.848 10.922 11.342 11.2681 11.187 11.2681ZM29.595 10.8901C31.888 10.8831 34.051 10.8761 34.325 12.3371C34.421 12.8491 34.175 13.6291 33.908 13.8531C33.861 13.6911 33.613 13.1601 32.828 13.0411C29.878 12.5961 27.74 16.2011 27.85 19.3251L27.19 20.0981C26.332 18.8991 25.206 18.2211 24 18.2211C22.794 18.2211 21.669 18.9001 20.81 20.0981L20.15 19.3251C20.26 16.1051 18.21 12.5911 15.225 13.0411C14.441 13.1611 14.192 13.6911 14.145 13.8531C13.878 13.6291 13.632 12.8491 13.727 12.3371C14.001 10.8761 16.164 10.8831 18.457 10.8901C19.959 10.8951 21.516 10.9001 22.637 10.4941C22.691 11.1991 21.764 12.3291 20.878 12.7471C22.355 14.0271 23.45 15.3221 24 16.564C24.55 15.3221 26.048 13.7241 27.174 12.7471C26.288 12.3291 25.362 11.1991 25.416 10.4941C26.536 10.9001 28.094 10.8951 29.595 10.8901Z" fill="#3D4B66"/>
<path d="M10.647 20.395C10.5272 20.1603 10.4269 19.9161 10.347 19.665C9.03503 19.913 6.58703 20.307 5.21703 20.093C3.29503 19.793 2.17003 18.443 2.38703 16.762C2.39203 16.719 2.44403 16.694 2.48703 16.715C3.03303 16.975 6.08203 18.321 10.06 17.985C10.0491 17.7485 10.0471 17.5116 10.054 17.275C7.44003 16.956 5.31303 16.509 3.92603 15.782C2.24203 14.897 1.50603 12.787 2.35403 11.215C2.37603 11.175 2.43803 11.168 2.47003 11.203C2.93103 11.703 5.75703 14.6 10.218 15.593C10.255 15.359 10.299 15.117 10.35 14.867C8.17803 13.693 6.08503 12.355 5.07303 11.128C3.49703 9.21796 3.64303 6.78096 5.14003 5.53796C5.17303 5.51096 5.22703 5.51796 5.24903 5.55296C5.72703 6.29596 10.166 13.062 15.039 15.983L15.222 16.089C15.36 16.169 15.376 16.34 15.257 16.441C14.695 16.921 14.345 17.591 14.345 18.334C14.345 19.624 15.4 20.698 16.795 20.931C17.444 21.05 19.6 20.981 19.6 20.981L19.763 21.23C19.063 21.745 18.233 22.52 17.95 23.374C17.4 25.031 17.95 26.779 17.95 26.779C17.682 28.66 15.851 29.757 14.232 28.795C14.167 28.756 14.165 28.663 14.225 28.616C15.937 27.29 16.603 25.97 16.79 24.941C16.65 24.579 16.405 24.295 16.09 24.055C15.797 25.205 15.377 26.14 14.864 26.699C13.8 27.854 12.063 27.839 11.31 27.039C11.284 27.012 11.292 26.969 11.327 26.949C11.74 26.726 13.973 25.434 14.68 23.309C14.458 23.2149 14.2353 23.1222 14.012 23.031C13.609 23.743 12.962 24.474 11.35 25.399C9.42503 26.503 8.18003 25.835 7.52803 24.77C7.50503 24.733 7.53303 24.686 7.58103 24.682C8.48203 24.614 11.071 23.93 12.517 22.308C12.2704 22.1624 12.0348 21.9989 11.812 21.819C10.541 22.599 8.99603 23.233 7.83803 23.381C6.22703 23.587 4.40203 23.103 4.35703 21.336C4.35703 21.301 4.39003 21.271 4.43003 21.273C4.94703 21.303 8.06003 21.431 10.647 20.395ZM37.353 20.395C37.468 20.171 37.569 19.929 37.653 19.665C38.965 19.913 41.413 20.307 42.783 20.093C44.705 19.793 45.83 18.443 45.613 16.762C45.608 16.719 45.556 16.694 45.513 16.715C44.967 16.975 41.918 18.321 37.94 17.985C37.95 17.759 37.953 17.523 37.946 17.275C40.56 16.956 42.687 16.509 44.074 15.782C45.758 14.897 46.494 12.787 45.646 11.215C45.624 11.175 45.562 11.168 45.531 11.203C45.069 11.703 42.243 14.6 37.781 15.593C37.745 15.359 37.701 15.117 37.651 14.867C39.822 13.693 41.915 12.355 42.927 11.128C44.503 9.21796 44.357 6.78096 42.86 5.53796C42.827 5.51096 42.773 5.51796 42.751 5.55296C42.273 6.29596 37.834 13.062 32.961 15.983C32.9008 16.0191 32.8401 16.0544 32.779 16.089C32.639 16.169 32.624 16.34 32.743 16.441C33.305 16.921 33.655 17.591 33.655 18.334C33.655 19.624 32.6 20.698 31.205 20.931C30.556 21.05 28.4 20.981 28.4 20.981L28.237 21.23C28.937 21.745 29.767 22.52 30.05 23.374C30.6 25.031 30.05 26.779 30.05 26.779C30.318 28.66 32.149 29.757 33.768 28.795C33.833 28.756 33.836 28.663 33.775 28.616C32.063 27.29 31.397 25.97 31.21 24.941C31.35 24.579 31.595 24.295 31.91 24.055C32.203 25.205 32.623 26.14 33.136 26.699C34.2 27.854 35.937 27.839 36.69 27.039C36.716 27.012 36.708 26.969 36.673 26.949C36.26 26.726 34.027 25.434 33.32 23.309C33.5421 23.2149 33.7648 23.1222 33.988 23.031C34.391 23.743 35.038 24.474 36.65 25.399C38.575 26.503 39.82 25.835 40.472 24.77C40.495 24.733 40.467 24.686 40.419 24.682C39.518 24.614 36.929 23.93 35.483 22.308C35.727 22.163 35.963 22.002 36.188 21.819C37.459 22.599 39.004 23.233 40.162 23.381C41.773 23.587 43.598 23.103 43.643 21.336C43.643 21.301 43.61 21.271 43.57 21.273C43.053 21.303 39.94 21.431 37.353 20.395Z" fill="#3D4B66"/>
<path fill-rule="evenodd" clip-rule="evenodd" d="M18.532 28.8529C18.3339 29.1181 18.2306 29.4421 18.2386 29.7731C18.2465 30.104 18.3654 30.4226 18.576 30.6779L18.21 31.3409L8.55299 27.2259C8.48589 27.1977 8.41029 27.1971 8.3428 27.2245C8.27531 27.2519 8.22144 27.3049 8.19299 27.3719L7.97699 27.8809L7.72399 27.7729C7.65722 27.7476 7.58321 27.749 7.51751 27.7771C7.45181 27.8051 7.39954 27.8576 7.3717 27.9233C7.34386 27.9891 7.34261 28.0632 7.36821 28.1298C7.39382 28.1965 7.44428 28.2507 7.50899 28.2809L7.76199 28.3889L7.54699 28.8969C7.48799 29.0369 7.55299 29.1999 7.69299 29.2589L9.46499 30.0139C9.04999 30.9969 8.16099 31.7779 5.61899 31.3139C5.49799 31.2909 5.39399 31.4039 5.43399 31.5209C6.53199 34.6879 11.191 36.6729 14.224 35.2659C14.336 35.2139 14.344 35.0599 14.244 34.9879C12.144 33.4759 12.087 32.2919 12.503 31.3079L17.14 33.2849L15.2 36.8089L16.85 36.2569L18.558 33.8889L21.191 35.0109L12.475 38.7249C12.4437 38.7381 12.4093 38.7422 12.3757 38.7369C12.3422 38.7316 12.3108 38.7171 12.285 38.6949L11.903 38.3689C12.1046 38.2824 12.2637 38.1196 12.3456 37.9161C12.4274 37.7126 12.4254 37.485 12.34 37.2829C12.298 37.1828 12.2367 37.092 12.1596 37.0157C12.0824 36.9393 11.991 36.879 11.8904 36.8381C11.7899 36.7972 11.6823 36.7766 11.5737 36.7774C11.4652 36.7783 11.3579 36.8005 11.258 36.8429C10.304 37.2509 10.962 38.8069 11.258 39.5049L11.272 39.5369L8.12299 40.8789C7.99188 40.9348 7.84728 40.9512 7.70699 40.9259L7.47499 40.8839C7.44402 40.8781 7.41382 40.8687 7.38499 40.8559C7.1796 40.7658 6.95791 40.7188 6.73362 40.7178C6.50933 40.7167 6.28721 40.7617 6.08099 40.8499C5.67769 41.0228 5.35929 41.3484 5.19549 41.7555C5.03169 42.1625 5.03583 42.6179 5.20699 43.0219C5.33536 43.3264 5.55227 43.5852 5.82958 43.7649C6.10688 43.9445 6.43178 44.0366 6.7621 44.0293C7.09243 44.022 7.41292 43.9155 7.68198 43.7238C7.95105 43.532 8.15626 43.2638 8.27099 42.9539C8.28195 42.9237 8.29638 42.8949 8.31399 42.8679L8.44499 42.6719C8.52428 42.5531 8.63654 42.4599 8.76799 42.4039L11.916 41.0619L11.93 41.0939C12.225 41.7939 12.883 43.3499 13.837 42.9429C14.0386 42.8564 14.1977 42.6936 14.2796 42.4901C14.3614 42.2866 14.3594 42.059 14.274 41.8569C14.2319 41.7571 14.1706 41.6664 14.0935 41.5903C14.0164 41.5141 13.925 41.454 13.8246 41.4132C13.7242 41.3724 13.6167 41.3518 13.5083 41.3526C13.3999 41.3535 13.2928 41.3757 13.193 41.4179L13.223 40.9159C13.2251 40.8818 13.2367 40.8489 13.2565 40.821C13.2763 40.7931 13.3035 40.7713 13.335 40.7579L24.005 36.2099L38.575 42.4199C38.715 42.4789 38.877 42.4129 38.936 42.2729L39.151 41.7649L39.404 41.8729C39.4708 41.8983 39.5448 41.8969 39.6105 41.8688C39.6762 41.8408 39.7284 41.7883 39.7563 41.7226C39.7841 41.6568 39.7854 41.5827 39.7598 41.5161C39.7342 41.4494 39.6837 41.3952 39.619 41.3649L39.366 41.2559L39.581 40.7479C39.5952 40.7146 39.6026 40.6788 39.603 40.6425C39.6033 40.6063 39.5965 40.5703 39.583 40.5367C39.5694 40.5031 39.5494 40.4725 39.524 40.4466C39.4986 40.4207 39.4683 40.4001 39.435 40.3859L26.821 35.0109L29.445 33.8929L31.15 36.2569L32.8 36.8089L30.862 33.2889L37.747 30.3549C38.2716 30.1315 38.737 29.7887 39.106 29.3539L39.902 28.4159C39.9242 28.3899 39.9387 28.3582 39.9438 28.3244C39.949 28.2906 39.9446 28.256 39.9312 28.2245C39.9178 28.1931 39.8959 28.166 39.868 28.1462C39.84 28.1265 39.8071 28.115 39.773 28.1129L38.548 28.0359C37.9799 28.0007 37.4115 28.0986 36.888 28.3219L29.792 31.3449L29.425 30.6769C29.6354 30.4217 29.7541 30.1032 29.762 29.7725C29.77 29.4419 29.6668 29.1181 29.469 28.8529L28.95 28.1589L28.125 29.3769V30.0919H27.3C26.75 30.9199 25.65 32.2999 24 32.2999C22.383 32.2999 21.25 30.9199 20.7 30.0919H19.875V29.3769C19.875 29.3769 19.317 28.5559 19.05 28.1589L18.532 28.8529ZM28.121 32.0579L27.759 31.5559L24.282 33.0099C24.1927 33.0474 24.0968 33.0666 24 33.0666C23.9032 33.0666 23.8073 33.0474 23.718 33.0099L20.241 31.5559L19.882 32.0539L24.006 33.8109L28.121 32.0579Z" fill="#3D4B66"/>
<path d="M19.5251 41.317C19.9691 39.416 21.525 37.817 23.13 37.058C24.0251 36.727 24.0261 36.727 24.9211 37.058C26.5261 37.816 28.081 39.416 28.526 41.318C28.729 42.188 27.758 42.973 26.9561 43.188C26.9161 43.198 26.876 43.17 26.8731 43.131C26.7211 40.726 25.6581 38.685 24.7071 37.756C24.6806 37.9375 24.6606 38.12 24.6471 38.303C24.6471 38.303 25.6221 41.017 25.6221 42.997C25.6221 43.918 24.2531 44.561 24.0001 44.651C23.7981 44.561 22.4281 43.918 22.4281 42.997C22.4281 41.017 23.4021 38.303 23.4021 38.303C23.3892 38.12 23.3699 37.9376 23.3441 37.756C22.3921 38.685 21.3291 40.727 21.1771 43.132C21.1751 43.171 21.1351 43.199 21.0951 43.188C20.2931 42.973 19.3211 42.188 19.5251 41.318V41.317ZM24.0071 19.325L24.6311 20.084L24.0071 20.826L23.3841 20.084L24.0071 19.324V19.325Z" fill="#3D4B66"/>
<path d="M22.845 22.9C22.845 22.9 22.438 22.35 22.335 22.076C21.969 21.093 22.437 20.636 23.122 20.636L24.007 21.436L24.892 20.636C25.577 20.636 26.045 21.093 25.679 22.076C25.577 22.349 25.169 22.901 25.169 22.901H22.845V22.9ZM22.882 23.39H25.132V27.908H25.447V28.586H25.807V29.263H22.207V28.586H22.567V27.908H22.882V23.391V23.39Z" fill="#3D4B66"/>
</svg>
