<svg width="80" height="80" viewBox="0 0 80 80" fill="none" xmlns="http://www.w3.org/2000/svg">
<g clip-path="url(#clip0)">
<path d="M25.303 35.3743C27.1016 31.0349 25.042 26.0591 20.7027 24.2605C16.3634 22.4618 11.3876 24.5214 9.58891 28.8607C7.79025 33.2001 9.84987 38.1759 14.1892 39.9745C18.5285 41.7732 23.5043 39.7136 25.303 35.3743Z" fill="#CFD7FF"/>
<path d="M17.1784 34.4624C16.9151 34.4624 16.6499 34.396 16.409 34.2594L14.9454 33.4305C14.1945 33.0054 13.9305 32.0519 14.3557 31.301C14.7809 30.5502 15.7343 30.286 16.4852 30.7115L16.9146 30.9546L18.1841 29.685C18.7943 29.0752 19.7835 29.0752 20.3938 29.685C21.004 30.2952 21.004 31.2846 20.3937 31.8949L18.2837 34.0049C17.9829 34.3055 17.5829 34.4624 17.1784 34.4624Z" fill="#1939DE"/>
<path d="M17.4364 66.8286C22.1326 66.8286 25.9397 63.0215 25.9397 58.3253C25.9397 53.6291 22.1326 49.822 17.4364 49.822C12.7402 49.822 8.93311 53.6291 8.93311 58.3253C8.93311 63.0215 12.7402 66.8286 17.4364 66.8286Z" fill="#CFD7FF"/>
<path d="M17.1784 60.6784C16.9151 60.6784 16.6499 60.6119 16.409 60.4754L14.9454 59.6465C14.1945 59.2213 13.9305 58.2679 14.3557 57.517C14.7809 56.766 15.7343 56.5019 16.4852 56.9274L16.9146 57.1705L18.1841 55.9009C18.7943 55.2909 19.7837 55.2909 20.3938 55.9009C21.004 56.511 21.0041 57.5004 20.394 58.1107L18.284 60.2209C17.9829 60.5215 17.5829 60.6784 17.1784 60.6784Z" fill="#1939DE"/>
<path d="M76.2518 3.125H67.2191C65.1524 3.125 63.4708 4.80656 63.4708 6.87328V63.9925C63.4708 63.9934 63.4708 64.5245 63.6997 64.807L70.391 76.1084C70.6722 76.5834 71.1833 76.8748 71.7355 76.8748C72.2877 76.8748 72.7988 76.5834 73.08 76.1084L79.7713 64.807C79.9636 64.5113 80.0002 63.9936 80.0002 63.9925V6.87328C80 4.80656 78.3185 3.125 76.2518 3.125ZM66.5958 62.4302V16.0938H70.173V62.4302H66.5958ZM73.2979 16.0938H76.875V62.4302H73.2979V16.0938ZM66.5958 6.87328C66.5958 6.52969 66.8755 6.25 67.2191 6.25H76.2518C76.5955 6.25 76.875 6.52969 76.875 6.87328V12.9688H66.5958V6.87328ZM71.7354 72.2456L67.7741 65.5552H75.6964L71.7354 72.2456Z" fill="#00B956"/>
<path d="M50.864 32.8744H31.7106C30.8476 32.8744 30.1481 33.5739 30.1481 34.4369C30.1481 35.2997 30.8476 35.9994 31.7106 35.9994H50.864C51.727 35.9994 52.4265 35.2997 52.4265 34.4369C52.4265 33.5741 51.727 32.8744 50.864 32.8744Z" fill="#CFD7FF"/>
<path d="M31.7106 26.6437C30.8476 26.6437 30.1481 27.3434 30.1481 28.2062C30.1481 29.0691 30.8476 29.7687 31.7106 29.7687H44.1618C45.0248 29.7687 45.7243 29.0691 45.7243 28.2062C45.7243 27.3434 45.0248 26.6437 44.1618 26.6437H31.7106Z" fill="#CFD7FF"/>
<path d="M50.864 59.0903H31.7106C30.8476 59.0903 30.1481 59.79 30.1481 60.6528C30.1481 61.5156 30.8476 62.2153 31.7106 62.2153H50.864C51.727 62.2153 52.4265 61.5156 52.4265 60.6528C52.4265 59.7899 51.727 59.0903 50.864 59.0903Z" fill="#CFD7FF"/>
<path d="M31.7106 55.9846H44.1618C45.0248 55.9846 45.7243 55.2849 45.7243 54.4221C45.7243 53.5593 45.0248 52.8596 44.1618 52.8596H31.7106C30.8476 52.8596 30.1481 53.5593 30.1481 54.4221C30.1481 55.2849 30.8476 55.9846 31.7106 55.9846Z" fill="#CFD7FF"/>
<path d="M55.6291 3.20312H4.16797C1.86969 3.20312 0 5.07281 0 7.37109V72.6289C0 74.9272 1.86969 76.7969 4.16797 76.7969H55.6291C57.9273 76.7969 59.797 74.9272 59.797 72.6289V7.37109C59.797 5.07281 57.9272 3.20312 55.6291 3.20312ZM56.672 72.6289C56.672 73.2041 56.2042 73.6719 55.6291 73.6719H4.16797C3.59281 73.6719 3.125 73.2041 3.125 72.6289V7.37109C3.125 6.79594 3.59281 6.32812 4.16797 6.32812H55.6291C56.2042 6.32812 56.672 6.79594 56.672 7.37109V72.6289Z" fill="#1939DE"/>
<path d="M47.3674 15.4139C47.3674 14.5511 46.6679 13.8514 45.8049 13.8514H13.9919C13.129 13.8514 12.4294 14.5511 12.4294 15.4139C12.4294 16.2768 13.129 16.9764 13.9919 16.9764H45.8049C46.6679 16.9764 47.3674 16.2769 47.3674 15.4139Z" fill="#CFD7FF"/>
</g>
<defs>
<clipPath id="clip0">
<rect width="80" height="80" fill="white"/>
</clipPath>
</defs>
</svg>
