<svg width="80" height="61" viewBox="0 0 80 61" fill="none" xmlns="http://www.w3.org/2000/svg">
<mask id="path-1-inside-1" fill="white">
<path fill-rule="evenodd" clip-rule="evenodd" d="M47.4156 32.3125C46.5299 29.5864 44.1658 27.2223 39.4376 22.4941L37.5079 20.5644C32.7797 15.8362 30.4156 13.4721 27.6895 12.5864C25.2915 11.8072 22.7085 11.8072 20.3105 12.5864C17.5844 13.4721 15.2203 15.8362 10.4921 20.5644L8.56242 22.4941C3.83422 27.2223 1.47012 29.5864 0.584356 32.3125C-0.194785 34.7105 -0.194785 37.2935 0.584355 39.6915C1.47012 42.4176 3.83422 44.7817 8.56242 49.5099L10.4921 51.4396C15.2203 56.1678 17.5844 58.5319 20.3105 59.4176C22.7085 60.1968 25.2915 60.1968 27.6895 59.4176C30.4156 58.5319 32.7797 56.1678 37.5079 51.4396L39.4376 49.5099C44.1658 44.7817 46.5299 42.4176 47.4156 39.6915C48.1948 37.2935 48.1948 34.7105 47.4156 32.3125Z"/>
</mask>
<path d="M39.4376 22.4941L36.6091 25.3225V25.3225L39.4376 22.4941ZM47.4156 32.3125L43.6114 33.5486L47.4156 32.3125ZM37.5079 20.5644L40.3363 17.736L40.3363 17.736L37.5079 20.5644ZM27.6895 12.5864L26.4534 16.3906L26.4534 16.3906L27.6895 12.5864ZM20.3105 12.5864L19.0745 8.78213H19.0745L20.3105 12.5864ZM10.4921 20.5644L7.66369 17.736V17.736L10.4921 20.5644ZM8.56242 22.4941L11.3908 25.3225L8.56242 22.4941ZM0.584356 32.3125L4.38858 33.5486H4.38858L0.584356 32.3125ZM0.584355 39.6915L4.38858 38.4554L4.38858 38.4554L0.584355 39.6915ZM8.56242 49.5099L11.3908 46.6815L11.3908 46.6814L8.56242 49.5099ZM10.4921 51.4396L7.66369 54.268L7.66369 54.268L10.4921 51.4396ZM20.3105 59.4176L19.0745 63.2219H19.0745L20.3105 59.4176ZM27.6895 59.4176L26.4534 55.6134H26.4534L27.6895 59.4176ZM37.5079 51.4396L40.3363 54.268L40.3363 54.268L37.5079 51.4396ZM39.4376 49.5099L36.6091 46.6815L36.6091 46.6815L39.4376 49.5099ZM47.4156 39.6915L51.2199 40.9275L47.4156 39.6915ZM36.6091 25.3225C39.0199 27.7333 40.6557 29.3735 41.8182 30.7428C42.9503 32.0764 43.3967 32.8878 43.6114 33.5486L51.2199 31.0765C50.5488 29.0112 49.3703 27.2774 47.9169 25.5654C46.4938 23.8891 44.5834 21.9831 42.266 19.6657L36.6091 25.3225ZM34.6795 23.3928L36.6091 25.3225L42.266 19.6657L40.3363 17.736L34.6795 23.3928ZM26.4534 16.3906C27.1143 16.6053 27.9256 17.0517 29.2592 18.1838C30.6285 19.3463 32.2687 20.9821 34.6795 23.3928L40.3363 17.736C38.0189 15.4186 36.1129 13.5082 34.4366 12.0851C32.7246 10.6317 30.9908 9.45317 28.9255 8.78213L26.4534 16.3906ZM21.5466 16.3906C23.1412 15.8725 24.8588 15.8725 26.4534 16.3906L28.9255 8.78213C25.7242 7.74195 22.2758 7.74196 19.0745 8.78213L21.5466 16.3906ZM13.3205 23.3928C15.7313 20.9821 17.3715 19.3463 18.7408 18.1838C20.0744 17.0517 20.8858 16.6053 21.5466 16.3906L19.0745 8.78213C17.0092 9.45317 15.2754 10.6317 13.5634 12.0851C11.8871 13.5082 9.98112 15.4186 7.66369 17.736L13.3205 23.3928ZM11.3908 25.3225L13.3205 23.3928L7.66369 17.736L5.73399 19.6657L11.3908 25.3225ZM4.38858 33.5486C4.6033 32.8877 5.04968 32.0764 6.18183 30.7428C7.3443 29.3735 8.98008 27.7333 11.3908 25.3225L5.73399 19.6657C3.41657 21.9831 1.50619 23.8891 0.0831165 25.5654C-1.37028 27.2774 -2.54883 29.0112 -3.21987 31.0765L4.38858 33.5486ZM4.38858 38.4554C3.87047 36.8608 3.87047 35.1432 4.38858 33.5486L-3.21987 31.0765C-4.26004 34.2778 -4.26004 37.7262 -3.21987 40.9275L4.38858 38.4554ZM11.3908 46.6814C8.98007 44.2707 7.3443 42.6305 6.18183 41.2612C5.04968 39.9276 4.6033 39.1162 4.38858 38.4554L-3.21987 40.9275C-2.54883 42.9928 -1.37028 44.7266 0.0831154 46.4386C1.50619 48.1149 3.41656 50.0209 5.73399 52.3383L11.3908 46.6814ZM13.3205 48.6112L11.3908 46.6815L5.73399 52.3383L7.66369 54.268L13.3205 48.6112ZM21.5466 55.6134C20.8857 55.3987 20.0744 54.9523 18.7408 53.8202C17.3715 52.6577 15.7313 51.0219 13.3205 48.6111L7.66369 54.268C9.98112 56.5854 11.8871 58.4958 13.5634 59.9189C15.2754 61.3723 17.0092 62.5508 19.0745 63.2219L21.5466 55.6134ZM26.4534 55.6134C24.8588 56.1315 23.1412 56.1315 21.5466 55.6134L19.0745 63.2219C22.2758 64.262 25.7242 64.262 28.9255 63.2219L26.4534 55.6134ZM34.6795 48.6112C32.2687 51.0219 30.6285 52.6577 29.2592 53.8202C27.9256 54.9523 27.1142 55.3987 26.4534 55.6134L28.9255 63.2219C30.9908 62.5508 32.7246 61.3723 34.4366 59.9189C36.1129 58.4958 38.0189 56.5854 40.3363 54.268L34.6795 48.6112ZM36.6091 46.6815L34.6794 48.6112L40.3363 54.268L42.266 52.3383L36.6091 46.6815ZM43.6114 38.4554C43.3967 39.1163 42.9503 39.9276 41.8182 41.2612C40.6557 42.6305 39.0199 44.2707 36.6091 46.6815L42.266 52.3383C44.5834 50.0209 46.4938 48.1149 47.9169 46.4386C49.3703 44.7266 50.5488 42.9928 51.2199 40.9275L43.6114 38.4554ZM43.6114 33.5486C44.1295 35.1432 44.1295 36.8608 43.6114 38.4554L51.2199 40.9275C52.26 37.7262 52.26 34.2778 51.2199 31.0765L43.6114 33.5486Z" fill="#00B956" mask="url(#path-1-inside-1)"/>
<path d="M46.9629 22.8583C48.5273 21.2939 48.5273 18.7575 46.9629 17.1931C45.3985 15.6287 42.8621 15.6287 41.2977 17.1931L24.0711 34.4197L18.88 29.2286C17.3156 27.6642 14.7792 27.6642 13.2148 29.2286C11.6504 30.793 11.6504 33.3294 13.2148 34.8938L21.2385 42.9175C22.8029 44.4819 25.3393 44.4819 26.9037 42.9175L46.9629 22.8583Z" fill="#1939DE" stroke="white" stroke-width="4" stroke-linecap="round" stroke-linejoin="round"/>
</svg>
